inDegrees=yes
name=ik_lifting_orientations
DataType=double
version=3
OpenSimVersion=4.5-2024-01-10-34fd6af
endheader
time	pelvis_tilt	pelvis_list	pelvis_rotation	pelvis_tx	pelvis_ty	pelvis_tz	hip_flexion_r	hip_adduction_r	hip_rotation_r	knee_angle_r	knee_angle_r_beta	ankle_angle_r	subtalar_angle_r	mtp_angle_r	hip_flexion_l	hip_adduction_l	hip_rotation_l	knee_angle_l	knee_angle_l_beta	ankle_angle_l	subtalar_angle_l	mtp_angle_l	lumbar_extension	lumbar_bending	lumbar_rotation	arm_flex_r	arm_add_r	arm_rot_r	elbow_flex_r	pro_sup_r	wrist_flex_r	wrist_dev_r	arm_flex_l	arm_add_l	arm_rot_l	elbow_flex_l	pro_sup_l	wrist_flex_l	wrist_dev_l
0.7	-0.26169722721276	-0.106484218737433	-89.60149409606362	0	0.9399999998679526	0	44.99822223915702	-10.00878750130241	0	59.99904704286167	1.047180918956903	-5.001194511676164	0	0	44.99822223915702	-10.00878750130241	0	59.99904704286167	1.047180918956903	-5.001194511676164	0	0	-2.604197108330289	0.256016514640922	-0.2568481184571907	3.066057584013517	-0.7695374735212264	3.375654994144826	0.2174947293336862	0.7703981492945061	0	0	0	-13.06543414712063	0	89.24473347492913	0.7703981492945061	0	0
0.71	-0.258690500875637	-0.1133734539684766	-89.53358654875559	0	0.9399999998679526	0	44.99822284384773	-10.00877703250474	0	59.99904733419304	1.047180924041595	-5.001192654322771	0	0	44.99822284384773	-10.00877703250474	0	59.99904733419304	1.047180924041595	-5.001192654322771	0	0	-3.110692265796558	0.2608614166285129	-0.193918872154852	3.666652738477072	-0.9731494006970175	3.563867894077658	0.2323706983222527	0.7702159591156137	0	0	0	-13.06577060748	0	89.2449120446573	0.7702159591156137	0	0
0.72	-0.2757550669641096	-0.1566385484936826	-89.47606169148845	0	0.9399999998679526	0	44.99822330894744	-10.00876899598062	0	59.99904755849609	1.047180927956422	-5.00119122928922	0	0	44.99822330894744	-10.00876899598062	0	59.99904755849609	1.047180927956422	-5.00119122928922	0	0	-3.649701524831868	0.2767444011248719	-0.0680634336551847	4.299839968002606	-1.134604738996549	3.72625059788669	0.2316035328655757	0.770075763351261	0	0	0	-13.06602960847346	0	89.24504945447684	0.770075763351261	0	0
0.73	-0.3097668798625351	-0.2400879115489912	-89.35057461676548	0	0.9399999998679526	0	44.99822384619757	-10.00875972592686	0	59.99904781775377	1.047180932481322	-5.001189586258577	0	0	44.99822384619757	-10.00875972592686	0	59.99904781775377	1.047180932481322	-5.001189586258577	0	0	-4.426991889299723	0.3259892448740331	-0.05840676930505215	5.13364651408923	-1.285501526268003	3.868944405443224	0.2325797256815631	0.7699137706025886	0	0	0	-13.06632894722663	0	89.24520822813528	0.7699137706025886	0	0
0.74	-0.3162963050329579	-0.2261201116092812	-89.35788944256326	0	0.9399999998679526	0	44.99823275098093	-10.00865375685754	0	59.99905325803711	1.047181027432178	-5.001172324175476	0	0	44.99823275098093	-10.00865375685754	0	59.99905325803711	1.047181027432178	-5.001172324175476	0	0	-5.15134904298526	0.3143170689234656	4.192729486392368	5.963393518900291	-1.774728597319249	-0.06901913191756838	0.230056333056674	0.7669584601976144	0	0	0	-13.07222042587727	0	89.24810481244008	0.7669584601976144	0	0
0.75	-0.356850257579434	-0.2907212616390725	-89.23809267057831	0	0.9399999998679526	0	44.99823322254122	-10.00864569047285	0	59.99905348575382	1.047181031406585	-5.001170898651488	0	0	44.99823322254122	-10.00864569047285	0	59.99905348575382	1.047181031406585	-5.001170898651488	0	0	-6.034663920377982	0.3617047399322321	4.786896156976857	6.925025667331515	-1.989468005525398	-0.4934820661225674	0.2182357667791768	0.7668160606841847	0	0	0	-13.0724838334126	0	89.24824438221891	0.7668160606841847	0	0
0.76	-0.3885531103098954	-0.3463205655510015	-89.14811283797567	0	0.9399999998679526	0	44.99823369911211	-10.00863755665164	0	59.99905371618368	1.047181035428345	-5.001169462077337	0	0	44.99823369911211	-10.00863755665164	0	59.99905371618368	1.047181035428345	-5.001169462077337	0	0	-6.968407571521121	0.3943588587014817	4.95174927747134	7.976672291117379	-2.151832149312751	-0.5121739613404754	0.210912601755199	0.7666720682034021	0	0	0	-13.07275030724734	0	89.24838551331038	0.7666720682034021	0	0
0.77	-0.4211448542055633	-0.4195476377801358	-89.05725843298025	0	0.9399999998679526	0	44.99823422340981	-10.00862860152543	0	59.99905396941353	1.047181039848039	-5.00116788046929	0	0	44.99823422340981	-10.00862860152543	0	59.99905396941353	1.047181039848039	-5.00116788046929	0	0	-7.972494984258979	0.4122128540863517	5.061338980609657	9.032396047829504	-2.277381500851936	-0.4961183575484378	0.20914272972554	0.76651371247593	0	0	0	-13.07304326603876	0	89.24854072222489	0.76651371247593	0	0
0.78	-0.4646185893954579	-0.4389521718718318	-88.88625383997594	0	0.9399999998679526	0	44.99823475946336	-10.00861945119867	0	59.99905422831003	1.047181044366636	-5.001166264858561	0	0	44.99823475946336	-10.00861945119867	0	59.99905422831003	1.047181044366636	-5.001166264858561	0	0	-8.865854496177631	0.460075693530237	5.028836116053469	10.02566058723658	-2.366228313270379	-0.4234910262072636	0.205737706064736	0.7663517979564058	0	0	0	-13.07334281476378	0	89.24869941921192	0.7663517979564058	0	0
0.79	-0.5301036255240524	-0.390935926448055	-88.70354876132927	0	0.9399999998679526	0	44.99823526431026	-10.00861085466042	0	59.99905447248118	1.047181048628226	-5.00116474801332	0	0	44.99823526431026	-10.00861085466042	0	59.99905447248118	1.047181048628226	-5.00116474801332	0	0	-9.764171319345644	0.535069723559233	4.915177011196825	11.12659869878457	-2.455356355514197	-0.2857745876486906	0.2057118129163366	0.7661992157341843	0	0	0	-13.07362523909245	0	89.24884896935166	0.7661992157341843	0	0
0.8	-0.5907976868441013	-0.3513631369548348	-88.52034566461083	0	0.9399999998679526	0	44.99823575262288	-10.00860254131572	0	59.99905470857921	1.047181052748914	-5.001163281424142	0	0	44.99823575262288	-10.00860254131572	0	59.99905470857921	1.047181052748914	-5.001163281424142	0	0	-10.71496780233961	0.6117502104189869	4.696918364759779	12.23538691723516	-2.469505158315097	0.0544476524919634	0.2207185356035492	0.7660516401556995	0	0	0	-13.07389837611266	0	89.24899361233868	0.7660516401556995	0	0
0.8100000000000001	-0.6371338571729459	-0.2529170085580258	-88.27474473522454	0	0.9399999998679526	0	44.99823628834933	-10.00859342450616	0	59.99905496755463	1.047181057268888	-5.00116167348772	0	0	44.99823628834933	-10.00859342450616	0	59.99905496755463	1.047181057268888	-5.00116167348772	0	0	-11.67060108584849	0.6969710246828984	4.411111410755133	13.4135990308612	-2.49248894022995	0.3990032886768952	0.2348812675835045	0.7658897364639515	0	0	0	-13.0741980238584	0	89.24915229871372	0.7658897364639515	0	0
0.82	-0.7017180474957139	-0.1318524681728363	-87.96688531879406	0	0.9399999998679526	0	44.99823690088177	-10.00858299622819	0	59.99905526339452	1.047181062432268	-5.001159834430259	0	0	44.99823690088177	-10.00858299622819	0	59.99905526339452	1.047181062432268	-5.001159834430259	0	0	-12.67918777303557	0.7996090943667318	4.196381617988042	14.64193392780268	-2.56160658575361	0.613158432547086	0.2367300385345963	0.7657046717560437	0	0	0	-13.07454044980392	0	89.24933368585397	0.7657046717560437	0	0
0.83	-0.7689737060363757	-0.04390502821176534	-87.6754159737834	0	0.9399999998679526	0	44.9982373836748	-10.00857479890815	0	59.9990554969368	1.04718106650835	-5.001158389845774	0	0	44.9982373836748	-10.00857479890815	0	59.9990554969368	1.04718106650835	-5.001158389845774	0	0	-13.83110410954922	0.9135428121636198	3.93956783799156	15.98883401216865	-2.520825864309661	0.8778713800020653	0.234865136070178	0.7655587070148454	0	0	0	-13.07481067639225	0	89.24947675001448	0.7655587070148454	0	0
0.84	-0.8220480692487581	0.1968982283042537	-87.36201900399634	0	0.9399999998679526	0	44.99823787708536	-10.0085664222082	0	59.99905573551678	1.047181070672356	-5.001156913920813	0	0	44.99823787708536	-10.0085664222082	0	59.99905573551678	1.047181070672356	-5.001156913920813	0	0	-14.89261864556998	1.052554185824784	3.738549821199255	17.35139057584086	-2.583804472207339	1.051385415658636	0.2440156053684849	0.7654095465732348	0	0	0	-13.07508679099125	0	89.2496229463711	0.7654095465732348	0	0
0.85	-0.9011894577705203	0.6720185692008578	-87.05226821285714	0	0.9399999998679526	0	44.99823845841726	-10.00855654968333	0	59.99905601640952	1.047181075574859	-5.00115517459284	0	0	44.99823845841726	-10.00855654968333	0	59.99905601640952	1.047181075574859	-5.00115517459284	0	0	-15.78734464901182	1.233727664331317	3.59878624648446	18.73208695247446	-2.663029270969454	1.188137317410383	0.2703720302687443	0.7652338448037339	0	0	0	-13.07541197184814	0	89.24979515663183	0.7652338448037339	0	0
